<svg width="247" height="248" viewBox="0 0 247 248" fill="none" xmlns="http://www.w3.org/2000/svg">
<path opacity="0.85" d="M115.3 247.5C178.978 247.5 230.6 195.878 230.6 132.2C230.6 68.5216 178.978 16.9 115.3 16.9C51.6216 16.9 0 68.5216 0 132.2C0 195.878 51.6216 247.5 115.3 247.5Z" fill="#231F20"/>
<path d="M131.1 230.6C194.778 230.6 246.4 178.978 246.4 115.3C246.4 51.6216 194.778 0 131.1 0C67.4216 0 15.8 51.6216 15.8 115.3C15.8 178.978 67.4216 230.6 131.1 230.6Z" fill="url(#paint0_linear)"/>
<path d="M131.1 215.9C186.66 215.9 231.7 170.86 231.7 115.3C231.7 59.7401 186.66 14.7 131.1 14.7C75.5401 14.7 30.5 59.7401 30.5 115.3C30.5 170.86 75.5401 215.9 131.1 215.9Z" fill="#3C5A99"/>
<path d="M99.1 122.6C104.5 122.6 110 122.6 115.4 122.6C116.1 122.6 116.2 122.8 116.2 123.4C116.2 140.7 116.2 158 116.2 175.3C116.2 175.4 116.2 175.5 116.2 175.6H138C138 175.5 138 175.4 138 175.3C138 158 138 140.6 138 123.3C138 122.7 138.2 122.5 138.8 122.5C144.2 122.5 149.7 122.5 155.1 122.5C155.8 122.5 156 122.3 156.1 121.7C156.4 118.9 156.8 116.1 157.2 113.4C157.6 110.2 158 107 158.4 103.9C158.5 103.1 158.6 102.4 158.7 101.5C158.3 101.5 158 101.5 157.8 101.5C151.5 101.5 145.1 101.5 138.8 101.5C138.2 101.5 138 101.4 138 100.7C138 95.9 138 91.1 138.1 86.2C138.1 85.2 138.3 84.2 138.6 83.2C139.4 80.4 141.5 78.8 144.3 78.3C146 78 147.7 77.9 149.4 77.9C152.5 77.8 155.7 77.9 158.8 77.9C159.4 77.9 159.6 77.7 159.6 77.1C159.6 71.3 159.6 65.5 159.6 59.8C159.6 59.1 159.3 59 158.7 58.9C153.1 58.3 147.5 58.1 141.9 58.2C136.3 58.3 131.1 59.7 126.5 63.1C121.5 66.7 118.7 71.6 117.3 77.5C116.6 80.5 116.4 83.6 116.3 86.6C116.3 91.2 116.3 95.9 116.3 100.5C116.3 101.2 116.1 101.4 115.4 101.4C110 101.4 104.6 101.4 99.2 101.4C98.9 101.4 98.6 101.4 98.3 101.4C98.3 101.7 98.3 102 98.3 102.2C98.3 108.7 98.3 115.1 98.3 121.6C98.2 122.4 98.5 122.6 99.1 122.6Z" fill="white"/>
<defs>
<linearGradient id="paint0_linear" x1="49.0864" y1="191.351" x2="211.878" y2="40.4296" gradientUnits="userSpaceOnUse">
<stop stop-color="#1C3361"/>
<stop offset="0.5255" stop-color="#3C5A99"/>
<stop offset="1" stop-color="#6E92DB"/>
</linearGradient>
</defs>
</svg>
