<svg width="247" height="248" viewBox="0 0 247 248" fill="none" xmlns="http://www.w3.org/2000/svg">
<path opacity="0.85" d="M115.3 247.5C178.978 247.5 230.6 195.878 230.6 132.2C230.6 68.5216 178.978 16.9 115.3 16.9C51.6216 16.9 0 68.5216 0 132.2C0 195.878 51.6216 247.5 115.3 247.5Z" fill="#231F20"/>
<path d="M131.1 230.6C194.778 230.6 246.4 178.978 246.4 115.3C246.4 51.6216 194.778 0 131.1 0C67.4216 0 15.8 51.6216 15.8 115.3C15.8 178.978 67.4216 230.6 131.1 230.6Z" fill="url(#paint0_linear)"/>
<path d="M131.1 215.9C186.66 215.9 231.7 170.86 231.7 115.3C231.7 59.7401 186.66 14.7 131.1 14.7C75.5401 14.7 30.5 59.7401 30.5 115.3C30.5 170.86 75.5401 215.9 131.1 215.9Z" fill="url(#paint1_linear)"/>
<path d="M131.1 171.2C124.4 171.1 117.7 171 110.9 170.9C106.9 170.8 102.9 170.6 99 169.6C87.4 166.7 79.9 159.5 76.8 147.9C75.9 144.7 75.6 141.4 75.5 138C75 124.7 75.1 111.5 75.3 98.1999C75.3 94.2999 75.5 90.4 76 86.5C77.3 77.9 81 70.6999 88.2 65.5999C91.9 62.9999 96 61.4999 100.3 60.5999C103.8 59.8999 107.3 59.6999 110.8 59.5999C123.3 59.1999 135.8 59.3 148.2 59.5C151.7 59.6 155.2 59.6999 158.7 60.1999C165.4 60.9999 171.5 63.3 176.5 68C181.4 72.5 184.1 78.1999 185.4 84.5999C186.1 87.9999 186.3 91.5 186.4 95C186.8 107.5 186.7 119.9 186.5 132.4C186.4 136 186.3 139.5 185.8 143.1C184.8 151.3 181.5 158.4 175 163.7C170.8 167.1 166 169 160.8 169.9C155.8 170.8 150.7 170.8 145.6 170.9C140.7 171 135.7 170.9 130.8 170.9C131.1 171.1 131.1 171.1 131.1 171.2ZM85.5 115.2C85.4 115.2 85.4 115.2 85.3 115.2C85.4 122 85.5 128.8 85.6 135.6C85.7 138.7 85.9 141.8 86.6 144.9C87.7 149.6 90 153.5 93.8 156.4C96.6 158.5 99.7 159.5 103.1 160.1C106.4 160.7 109.7 160.8 113 160.8C125.9 161 138.9 161.1 151.8 160.7C154.8 160.6 157.8 160.4 160.7 159.7C165 158.7 168.6 156.7 171.5 153.3C174 150.4 175.3 146.9 175.9 143.2C176.5 139.9 176.6 136.5 176.6 133.2C176.8 120.3 176.9 107.5 176.5 94.5999C176.4 91.5999 176.2 88.5999 175.5 85.5999C174.4 80.9999 172.2 77.2 168.5 74.3C165.7 72.1 162.5 71 159 70.4C155.7 69.8 152.3 69.6999 149 69.6999C136.1 69.4999 123.2 69.4 110.3 69.8C107.3 69.9 104.3 70.1 101.3 70.8C96.7 71.9 92.8 74.1 89.9 77.9C87.6 80.9 86.4 84.3 86 88C85.6 91.3 85.4 94.7 85.3 98C85.4 103.7 85.5 109.5 85.5 115.2Z" fill="white"/>
<path d="M131.1 144C115.3 144 102.4 131.1 102.4 115.3C102.4 99.5 115.3 86.6 131.1 86.6C146.9 86.6 159.8 99.5 159.7 115.3C159.8 131.1 146.9 144 131.1 144ZM131.1 96.7C120.8 96.7 112.5 105 112.5 115.3C112.5 125.6 120.8 133.9 131.1 133.9C141.4 133.9 149.8 125.6 149.7 115.3C149.7 105 141.4 96.7 131.1 96.7Z" fill="white"/>
<path d="M160.9 78.7999C164.6 78.7999 167.6 81.7999 167.6 85.4999C167.6 89.1999 164.6 92.1999 160.9 92.1999C157.2 92.1999 154.2 89.1999 154.2 85.4999C154.2 81.7999 157.2 78.7999 160.9 78.7999Z" fill="white"/>
<defs>
<linearGradient id="paint0_linear" x1="41.9963" y1="13.0528" x2="187.056" y2="179.478" gradientUnits="userSpaceOnUse">
<stop stop-color="#FED469"/>
<stop offset="0.3459" stop-color="#EA5A45"/>
<stop offset="0.699" stop-color="#D22A83"/>
<stop offset="1" stop-color="#4F5BD5"/>
</linearGradient>
<linearGradient id="paint1_linear" x1="186.846" y1="200.41" x2="63.151" y2="11.4948" gradientUnits="userSpaceOnUse">
<stop stop-color="#FED469"/>
<stop offset="0.3459" stop-color="#EA5A45"/>
<stop offset="0.699" stop-color="#D22A83"/>
<stop offset="1" stop-color="#4F5BD5"/>
</linearGradient>
</defs>
</svg>
