<svg width="247" height="248" viewBox="0 0 247 248" fill="none" xmlns="http://www.w3.org/2000/svg">
<path opacity="0.85" d="M115.3 247.5C178.978 247.5 230.6 195.878 230.6 132.2C230.6 68.5216 178.978 16.9 115.3 16.9C51.6216 16.9 0 68.5216 0 132.2C0 195.878 51.6216 247.5 115.3 247.5Z" fill="#231F20"/>
<path d="M131.1 230.6C194.778 230.6 246.4 178.978 246.4 115.3C246.4 51.6216 194.778 0 131.1 0C67.4215 0 15.8 51.6216 15.8 115.3C15.8 178.978 67.4215 230.6 131.1 230.6Z" fill="url(#paint0_linear)"/>
<path d="M131.1 215.9C186.66 215.9 231.7 170.86 231.7 115.3C231.7 59.7401 186.66 14.7 131.1 14.7C75.5401 14.7 30.5 59.7401 30.5 115.3C30.5 170.86 75.5401 215.9 131.1 215.9Z" fill="#B93936"/>
<path d="M123.9 136C123.5 137.5 123.2 138.7 122.9 140C121.5 145.5 120.2 151 118.6 156.4C116.8 162.6 113.5 168.1 109.8 173.4C108.8 174.9 107.6 176.4 106.5 177.9C106.2 178.4 105.7 178.8 105.1 178.6C104.5 178.4 104.4 177.8 104.3 177.3C104 174.1 103.6 170.9 103.5 167.7C103.4 164.6 103.3 161.4 103.6 158.3C103.9 155 104.5 151.8 105.2 148.6C107.4 139.1 109.7 129.6 111.9 120.1C112.4 117.8 113 115.6 113.5 113.3C113.6 112.7 113.6 112.1 113.4 111.5C111.2 105.4 110.8 99.2 112.9 93C114.3 88.9 116.8 85.5 121 83.7C124.6 82.2 128.2 82.4 131.4 84.9C133.3 86.5 134.2 88.7 134.6 91.1C135.2 94.8 134.4 98.3 133.4 101.8C131.9 107 130.4 112.1 128.9 117.3C128.2 119.7 127.9 122.1 128.7 124.6C130.2 128.9 133.3 131.3 137.7 132C142.4 132.8 146.5 131.2 150 128.2C154 124.9 156.4 120.6 158.3 115.9C160.3 110.7 161.5 105.4 161.8 99.8C162 97.2 162.1 94.5 161.9 91.9C161.5 85.6 159.2 80.1 154.8 75.6C151.6 72.4 147.7 70.3 143.4 69C139.9 68 136.4 67.5 132.8 67.5C123.8 67.6 115.6 70.1 108.8 76.2C103.2 81.2 99.8001 87.5 98.4001 94.9C98.0001 97.3 97.8001 99.8 97.8001 102.3C97.8001 107.1 99.2001 111.5 102.4 115.2C103.5 116.5 103.9 117.8 103.4 119.5C102.9 121.2 102.5 122.9 102.1 124.6C101.5 126.8 100.1 127.4 98.1 126.5C92.6 124.1 89 119.8 86.7 114.4C84.8 110 84.1001 105.3 84.0001 100.5C83.9001 93.8 85.4001 87.5 88.4001 81.5C92.8001 72.6 99.6001 66 108.3 61.4C113.8 58.5 119.6 56.8 125.7 55.9C129.8 55.3 133.8 55.1 137.9 55.4C148.5 56.1 158 59.6 166 66.7C172.2 72.3 176.4 79.1 178.4 87.3C179.4 91.4 179.6 95.5 179.3 99.7C179 105.5 178 111.2 176.1 116.7C173.8 123.4 170.4 129.4 165.4 134.4C160.4 139.4 154.5 142.6 147.5 143.9C142.1 144.9 136.8 144.8 131.6 142.4C128.8 141.1 126.3 139.3 124.4 136.8C124.4 136.6 124.2 136.4 123.9 136Z" fill="white"/>
<defs>
<linearGradient id="paint0_linear" x1="68.6289" y1="188.377" x2="194.573" y2="41.0685" gradientUnits="userSpaceOnUse">
<stop stop-color="#751614"/>
<stop offset="0.5155" stop-color="#B93936"/>
<stop offset="1" stop-color="#FF7470"/>
</linearGradient>
</defs>
</svg>
